STARTFONT 2.1
FONT -Monotype-Times New Roman-Bold-R-Normal--33-240-100-100-P-175-iso8859-5
SIZE 24 100 100
FONTBOUNDINGBOX 38 37 -1 -8

STARTPROPERTIES 24
FOUNDRY "Monotype"
FAMILY_NAME "Times New Roman"
WEIGHT_NAME "Bold"
SLANT "R"
SETWIDTH_NAME "Normal"
ADD_STYLE_NAME ""
PIXEL_SIZE 33
POINT_SIZE 240
RESOLUTION_X 100
RESOLUTION_Y 100
SPACING "P"
AVERAGE_WIDTH 175
CHARSET_REGISTRY "iso8859"
CHARSET_ENCODING "5"
FACE_NAME "Times New Roman Bold ISO Latin Cyrillic"
_DEC_DEVICE_FONTNAMES "PS=timesnewroman-b-latcyrillic"
COPYRIGHT "Copyright (c) 1993 Monotype Typography Ltd."
CAP_HEIGHT 25
X_HEIGHT 17
WEIGHT 10
QUAD_WIDTH 22
DEFAULT_CHAR 160
FONT_DESCENT 8
FONT_ASCENT 29
ENDPROPERTIES

CHARS 191

STARTCHAR space
ENCODING 32
SWIDTH 250 0
DWIDTH 8 0
BBX 0 0 0 0
BITMAP
ENDCHAR

STARTCHAR exclam
ENCODING 33
SWIDTH 271 0
DWIDTH 9 0
BBX 5 23 2 0
BITMAP
78
F8
F8
F8
F8
F8
F8
70
70
70
70
20
20
20
20
00
00
00
70
F8
F8
F8
70
ENDCHAR

STARTCHAR quotedbl
ENCODING 34
SWIDTH 552 0
DWIDTH 18 0
BBX 13 11 3 12
BITMAP
7070
F8F8
F8F8
F8F8
F8F0
7070
7070
7070
2020
2020
2020
ENDCHAR

STARTCHAR numbersign
ENCODING 35
SWIDTH 667 0
DWIDTH 22 0
BBX 20 23 1 0
BITMAP
03C1C0
0381C0
0381C0
0381C0
078380
070380
FFFFF0
FFFFF0
F7FFF0
0F0700
0E0700
0E0700
0E0700
0E0E00
FFFFF0
FFFFF0
FFFFF0
1C0E00
1C1C00
381C00
381C00
381C00
383C00
ENDCHAR

STARTCHAR dollar
ENCODING 36
SWIDTH 500 0
DWIDTH 17 0
BBX 15 25 1 -2
BITMAP
0100
0FE0
397C
711C
E10C
E10C
F104
F900
FF00
7F00
7FC0
3FE0
0FF8
03FC
01FC
017E
013E
811E
811E
C11C
E11C
F138
FFF0
0380
0100
ENDCHAR

STARTCHAR percent
ENCODING 37
SWIDTH 875 0
DWIDTH 29 0
BBX 26 24 1 -1
BITMAP
1C001C00
23001800
63003000
E3807000
E3806000
E380C000
E380C000
E3818000
E3830000
63030000
22060000
1C060E00
000C1180
00183180
001871C0
003071C0
003071C0
006071C0
00C071C0
00C071C0
01803180
03801180
03000E00
06000000
ENDCHAR

STARTCHAR ampersand
ENCODING 38
SWIDTH 771 0
DWIDTH 25 0
BBX 23 23 1 0
BITMAP
007C00
01DE00
018F00
038700
038700
03C700
03C600
03CC00
03F800
03E0FC
07F078
1DF030
38F820
70FC60
F87C40
F87EC0
F83F80
FC1F80
FE0FC0
7F0FE2
7FFFFC
3FF3F8
07C1F0
ENDCHAR

STARTCHAR quoteright
ENCODING 39
SWIDTH 271 0
DWIDTH 9 0
BBX 6 11 2 12
BITMAP
78
F8
FC
FC
7C
0C
0C
18
30
60
80
ENDCHAR

STARTCHAR parenleft
ENCODING 40
SWIDTH 333 0
DWIDTH 11 0
BBX 9 29 1 -6
BITMAP
0180
0300
0600
0C00
1C00
3800
3800
7800
7800
7000
F000
F000
F000
F000
F000
F000
F000
F000
F000
7000
7800
7800
3800
3800
1C00
0C00
0600
0300
0180
ENDCHAR

STARTCHAR parenright
ENCODING 41
SWIDTH 333 0
DWIDTH 11 0
BBX 9 29 1 -6
BITMAP
C000
6000
3000
1800
1C00
0E00
0E00
0F00
0F00
0700
0780
0780
0780
0780
0780
0780
0780
0780
0780
0700
0F00
0F00
0E00
0E00
1C00
1800
3000
6000
C000
ENDCHAR

STARTCHAR asterisk
ENCODING 42
SWIDTH 500 0
DWIDTH 17 0
BBX 13 13 2 11
BITMAP
0200
0700
0700
0700
E238
F278
FEF8
0200
0500
1DC0
39E0
38E0
1060
ENDCHAR

STARTCHAR plus
ENCODING 43
SWIDTH 667 0
DWIDTH 22 0
BBX 17 18 3 3
BITMAP
01C000
01C000
01C000
01C000
01C000
01C000
01C000
01C000
FFFF80
FFFF80
FFFF80
01C000
01C000
01C000
01C000
01C000
01C000
01C000
ENDCHAR

STARTCHAR comma
ENCODING 44
SWIDTH 271 0
DWIDTH 9 0
BBX 6 11 2 -6
BITMAP
78
F8
FC
FC
7C
0C
0C
18
10
60
80
ENDCHAR

STARTCHAR minus
ENCODING 45
SWIDTH 667 0
DWIDTH 22 0
BBX 18 3 2 10
BITMAP
FFFFC0
FFFFC0
FFFFC0
ENDCHAR

STARTCHAR period
ENCODING 46
SWIDTH 271 0
DWIDTH 9 0
BBX 5 5 2 0
BITMAP
70
F8
F8
F8
70
ENDCHAR

STARTCHAR slash
ENCODING 47
SWIDTH 281 0
DWIDTH 9 0
BBX 9 24 0 -1
BITMAP
0780
0780
0780
0700
0700
0F00
0F00
0F00
0E00
1E00
1E00
1E00
1C00
3C00
3C00
3C00
3800
7800
7800
7800
7800
7000
F000
F000
ENDCHAR

STARTCHAR zero
ENCODING 48
SWIDTH 500 0
DWIDTH 17 0
BBX 15 23 1 0
BITMAP
07C0
0C70
1C78
3838
783C
783C
783E
F83E
F83E
F83E
F83E
F83E
F83E
F83E
F83E
F83E
783C
783C
783C
3838
1C78
0C70
07C0
ENDCHAR

STARTCHAR one
ENCODING 49
SWIDTH 500 0
DWIDTH 17 0
BBX 12 23 2 0
BITMAP
0080
0780
1F80
FF80
0F80
0F80
0F80
0F80
0F80
0F80
0F80
0F80
0F80
0F80
0F80
0F80
0F80
0F80
0F80
0F80
0F80
1FC0
7FF0
ENDCHAR

STARTCHAR two
ENCODING 50
SWIDTH 500 0
DWIDTH 17 0
BBX 15 23 1 0
BITMAP
07C0
1FF0
3FF8
3FF8
61FC
40FC
807C
007C
0078
0078
0070
00F0
00E0
01C0
0180
0300
0700
0C02
0806
1FFE
3FFC
7FFC
FFFC
ENDCHAR

STARTCHAR three
ENCODING 51
SWIDTH 500 0
DWIDTH 17 0
BBX 15 23 1 0
BITMAP
07E0
1FF0
3FF8
20FC
407C
407C
0078
0078
0060
00F0
03F8
07FC
01FC
007E
003E
003E
001E
001C
001C
E018
F830
FC60
7F80
ENDCHAR

STARTCHAR four
ENCODING 52
SWIDTH 500 0
DWIDTH 17 0
BBX 15 23 1 0
BITMAP
0018
0038
0078
00F8
01F8
01F8
02F8
06F8
0CF8
18F8
10F8
20F8
60F8
80F8
FFFE
FFFE
FFFE
FFFE
00F8
00F8
00F8
00F8
00F8
ENDCHAR

STARTCHAR five
ENCODING 53
SWIDTH 500 0
DWIDTH 17 0
BBX 15 23 1 0
BITMAP
0FFE
0FFC
1FFC
1FFC
1000
2000
3C00
3FC0
7FF0
7FF8
FFFC
03FC
007E
003E
001E
000E
000E
000C
600C
F808
FC10
7FE0
1F00
ENDCHAR

STARTCHAR six
ENCODING 54
SWIDTH 500 0
DWIDTH 17 0
BBX 15 23 1 0
BITMAP
001E
00F0
03C0
0780
0F00
1E00
3C00
7C00
79E0
7FF8
F87C
F87C
F83E
F83E
F83E
F83E
F83E
783E
7C3C
3C3C
3C38
1E70
07C0
ENDCHAR

STARTCHAR seven
ENCODING 55
SWIDTH 500 0
DWIDTH 17 0
BBX 16 23 0 0
BITMAP
3FFF
3FFE
7FFE
7FFE
700C
401C
801C
0018
0038
0038
0030
0070
0070
0060
00E0
00E0
00C0
01C0
01C0
0180
0380
0380
0300
ENDCHAR

STARTCHAR eight
ENCODING 56
SWIDTH 500 0
DWIDTH 17 0
BBX 15 23 1 0
BITMAP
0FE0
3C70
7838
F03C
F03C
F83C
F83C
FE38
7F70
3FC0
1FE0
07F0
1FF8
39FC
78FC
F07E
F03E
F03E
F03E
F03C
7838
3C70
0FC0
ENDCHAR

STARTCHAR nine
ENCODING 57
SWIDTH 500 0
DWIDTH 17 0
BBX 15 23 1 0
BITMAP
07C0
1CF0
3878
787C
783C
F83E
F83E
F83E
F83E
F83E
7C3E
7C3E
3FFE
0FBC
007C
0078
00F8
00F0
01E0
03C0
0F00
3C00
E000
ENDCHAR

STARTCHAR colon
ENCODING 58
SWIDTH 271 0
DWIDTH 9 0
BBX 5 16 2 0
BITMAP
70
F8
F8
F8
70
00
00
00
00
00
00
70
F8
F8
F8
70
ENDCHAR

STARTCHAR semicolon
ENCODING 59
SWIDTH 271 0
DWIDTH 9 0
BBX 6 22 2 -6
BITMAP
70
F8
F8
F8
70
00
00
00
00
00
00
78
F8
FC
FC
7C
0C
0C
18
10
60
80
ENDCHAR

STARTCHAR less
ENCODING 60
SWIDTH 667 0
DWIDTH 22 0
BBX 18 18 2 2
BITMAP
0000C0
0003C0
001FC0
007FC0
03FE00
0FF800
3FC000
FF0000
F80000
FE0000
7FC000
1FF000
03FC00
00FF80
003FC0
0007C0
0001C0
000040
ENDCHAR

STARTCHAR equal
ENCODING 61
SWIDTH 667 0
DWIDTH 22 0
BBX 18 11 2 6
BITMAP
FFFFC0
FFFFC0
FFFFC0
000000
000000
000000
000000
000000
FFFFC0
FFFFC0
FFFFC0
ENDCHAR

STARTCHAR greater
ENCODING 62
SWIDTH 667 0
DWIDTH 22 0
BBX 18 18 2 2
BITMAP
C00000
F00000
FE0000
7F8000
1FF000
07FC00
00FF00
003FC0
0007C0
001FC0
00FF80
03FE00
0FF000
7FC000
FF0000
F80000
E00000
800000
ENDCHAR

STARTCHAR question
ENCODING 63
SWIDTH 385 0
DWIDTH 13 0
BBX 12 23 0 0
BITMAP
1F80
63C0
63E0
F1F0
F1F0
F1F0
71F0
01E0
01E0
03C0
0380
0600
0400
0400
0400
0000
0000
0000
0E00
1F00
1F00
1F00
0E00
ENDCHAR

STARTCHAR at
ENCODING 64
SWIDTH 958 0
DWIDTH 32 0
BBX 29 31 1 -8
BITMAP
000FF000
00780E00
01C00300
03000080
06000040
0C000020
18000020
30079C30
300E5C10
601C5C10
60387810
60787810
C0787810
C0F07810
C0F0F010
C1F0F020
C1E1F020
C1E0E020
C1E2E040
41E5E080
41FDE108
61F9E608
20F0F810
30000010
10000020
18000040
0C0000C0
06000180
01800600
00703800
000FE000
ENDCHAR

STARTCHAR A
ENCODING 65
SWIDTH 719 0
DWIDTH 24 0
BBX 23 23 0 0
BITMAP
000800
001800
001800
003C00
003C00
003C00
007E00
007E00
00DF00
009F00
019F80
010F80
010F80
020FC0
0207C0
07FFE0
0403E0
0C03F0
0803F0
0801F0
1801F8
3801FC
FF07FE
ENDCHAR

STARTCHAR B
ENCODING 66
SWIDTH 667 0
DWIDTH 22 0
BBX 21 23 0 0
BITMAP
FFFE00
3F1F80
1F07E0
1F03E0
1F03F0
1F03F0
1F03F0
1F03F0
1F03E0
1F07C0
1F1D80
1FFE00
1F0FC0
1F07E0
1F03F0
1F01F8
1F01F8
1F01F8
1F01F8
1F03F0
1F03F0
1F8FC0
FFFF00
ENDCHAR

STARTCHAR C
ENCODING 67
SWIDTH 719 0
DWIDTH 24 0
BBX 21 23 1 0
BITMAP
00FF08
03E1F8
0F8078
1F0018
1F0018
3E0008
7E0008
7C0000
7C0000
FC0000
FC0000
FC0000
FC0000
FC0000
FC0000
7C0000
7E0000
3E0000
3F0008
1F0018
0F8060
03E1C0
00FF00
ENDCHAR

STARTCHAR D
ENCODING 68
SWIDTH 771 0
DWIDTH 25 0
BBX 24 23 1 0
BITMAP
FFFF00
1F07C0
1F01F0
1F00F8
1F007C
1F007C
1F007E
1F003E
1F003F
1F003F
1F003F
1F003F
1F003F
1F003F
1F003F
1F003E
1F007E
1F007E
1F007C
1F00F8
1F01F0
1F87E0
FFFF00
ENDCHAR

STARTCHAR E
ENCODING 69
SWIDTH 667 0
DWIDTH 22 0
BBX 20 23 1 0
BITMAP
FFFFE0
3F01E0
1F00E0
1F0060
1F0020
1F0420
1F0420
1F0400
1F0C00
1F0C00
1F3C00
1FFC00
1F1C00
1F0C00
1F0C00
1F0400
1F0410
1F0010
1F0010
1F0030
1F0070
3F81E0
FFFFE0
ENDCHAR

STARTCHAR F
ENCODING 70
SWIDTH 604 0
DWIDTH 20 0
BBX 18 23 1 0
BITMAP
FFFFC0
3F01C0
1F00C0
1F0040
1F0040
1F0040
1F0400
1F0400
1F0400
1F0C00
1F1C00
1FFC00
1F1C00
1F0C00
1F0400
1F0400
1F0400
1F0000
1F0000
1F0000
1F0000
3F8000
FFF000
ENDCHAR

STARTCHAR G
ENCODING 71
SWIDTH 771 0
DWIDTH 25 0
BBX 24 23 1 0
BITMAP
00FF08
03E1F8
078078
0F0038
1E0018
3E0008
7E0008
7C0000
7C0000
FC0000
FC0000
FC0000
FC0000
FC07FF
FC01FC
7C00F8
7C00F8
3E00F8
3E00F8
1F00F8
0F80F8
03C1F0
00FFC0
ENDCHAR

STARTCHAR H
ENCODING 72
SWIDTH 823 0
DWIDTH 27 0
BBX 26 23 1 0
BITMAP
FFE1FFC0
3F807F00
1F003E00
1F003E00
1F003E00
1F003E00
1F003E00
1F003E00
1F003E00
1F003E00
1F003E00
1FFFFE00
1F003E00
1F003E00
1F003E00
1F003E00
1F003E00
1F003E00
1F003E00
1F003E00
1F003E00
3F807F00
FFE1FFC0
ENDCHAR

STARTCHAR I
ENCODING 73
SWIDTH 385 0
DWIDTH 13 0
BBX 11 23 1 0
BITMAP
FFE0
3F80
1F00
1F00
1F00
1F00
1F00
1F00
1F00
1F00
1F00
1F00
1F00
1F00
1F00
1F00
1F00
1F00
1F00
1F00
1F00
3F80
FFE0
ENDCHAR

STARTCHAR J
ENCODING 74
SWIDTH 552 0
DWIDTH 18 0
BBX 17 23 1 0
BITMAP
07FF80
00FE00
007C00
007C00
007C00
007C00
007C00
007C00
007C00
007C00
007C00
007C00
007C00
007C00
007C00
007C00
707C00
F87C00
F87C00
F87C00
707800
38F000
0FC000
ENDCHAR

STARTCHAR K
ENCODING 75
SWIDTH 719 0
DWIDTH 24 0
BBX 23 23 1 0
BITMAP
FFE7F8
3F81E0
1F01C0
1F0180
1F0300
1F0600
1F0C00
1F1800
1F1000
1F3800
1F7C00
1FFC00
1FBE00
1F3F00
1F3F00
1F1F80
1F1F80
1F0FC0
1F07E0
1F07E0
1F03F0
3F83F8
FFEFFE
ENDCHAR

STARTCHAR L
ENCODING 76
SWIDTH 667 0
DWIDTH 22 0
BBX 21 23 0 0
BITMAP
FFF800
1FC000
0F8000
0F8000
0F8000
0F8000
0F8000
0F8000
0F8000
0F8000
0F8000
0F8000
0F8000
0F8000
0F8000
0F8008
0F8008
0F8008
0F8018
0F8018
0F8030
1FC0F0
FFFFF0
ENDCHAR

STARTCHAR M
ENCODING 77
SWIDTH 990 0
DWIDTH 33 0
BBX 32 23 0 0
BITMAP
FF8001FF
3FC001FC
17C00378
17C002F8
17E006F8
13E004F8
13F00CF8
11F008F8
11F818F8
10F810F8
10FC10F8
10FC20F8
107E20F8
107E40F8
103F40F8
103FC0F8
101F80F8
101F80F8
100F00F8
100F00F8
100600F8
380601FC
FE0207FF
ENDCHAR

STARTCHAR N
ENCODING 78
SWIDTH 771 0
DWIDTH 25 0
BBX 24 23 1 0
BITMAP
FF007F
7F001C
3F8008
1FC008
17E008
17F008
13F808
11FC08
10FC08
107E08
107F08
103F88
101FC8
100FE8
1007F8
1003F8
1001F8
1000F8
1000F8
100078
100038
380018
FF0008
ENDCHAR

STARTCHAR O
ENCODING 79
SWIDTH 823 0
DWIDTH 27 0
BBX 25 23 1 0
BITMAP
00FF8000
03C1E000
0F80F800
1F007C00
3E003E00
3E003E00
7E003F00
7C001F00
FC001F80
FC001F80
FC001F80
FC001F80
FC001F80
FC001F80
FC001F80
7C001F00
7E003F00
3E003E00
3E003E00
1F007C00
0F80F800
03C3E000
00FF8000
ENDCHAR

STARTCHAR P
ENCODING 80
SWIDTH 667 0
DWIDTH 22 0
BBX 20 23 1 0
BITMAP
FFFE00
1F0F80
1F07E0
1F03E0
1F03F0
1F03F0
1F03F0
1F03F0
1F03E0
1F07C0
1F0F80
1FFE00
1F0000
1F0000
1F0000
1F0000
1F0000
1F0000
1F0000
1F0000
1F0000
3F8000
FFE000
ENDCHAR

STARTCHAR Q
ENCODING 81
SWIDTH 823 0
DWIDTH 27 0
BBX 25 29 1 -6
BITMAP
00FF8000
03E1E000
0F80F800
1F007C00
3E003E00
3E003E00
7E003F00
7C001F00
FC001F80
FC001F80
FC001F80
FC001F80
FC001F80
FC001F80
FC001F80
7C001F00
7E003F00
7E003F00
3E003E00
1F007C00
0F80F800
07C1F000
01FFC000
003F0000
003F0000
001F8000
000FC000
0007F000
0001FF00
ENDCHAR

STARTCHAR R
ENCODING 82
SWIDTH 719 0
DWIDTH 24 0
BBX 22 23 1 0
BITMAP
FFFE00
1F0F80
1F07C0
1F03E0
1F03E0
1F03E0
1F03E0
1F03E0
1F07E0
1F07C0
1F0F80
1FFC00
1F7E00
1F3E00
1F3F00
1F1F80
1F0F80
1F0FC0
1F07C0
1F07E0
1F03F0
3F83F0
FFE1FC
ENDCHAR

STARTCHAR S
ENCODING 83
SWIDTH 604 0
DWIDTH 20 0
BBX 18 23 1 0
BITMAP
0FF100
3C1D00
700700
F00380
E00180
F00180
F00080
FC0000
FF8000
7FF000
3FFC00
1FFF00
07FF80
00FF80
003FC0
800FC0
8007C0
8003C0
C003C0
E00380
F00700
FC1E00
87F800
ENDCHAR

STARTCHAR T
ENCODING 84
SWIDTH 667 0
DWIDTH 22 0
BBX 21 23 1 0
BITMAP
FFFFF8
E0F878
C0F818
C0F818
80F808
80F808
00F800
00F800
00F800
00F800
00F800
00F800
00F800
00F800
00F800
00F800
00F800
00F800
00F800
00F800
00F800
01FC00
07FF00
ENDCHAR

STARTCHAR U
ENCODING 85
SWIDTH 771 0
DWIDTH 25 0
BBX 24 23 1 0
BITMAP
FFE07F
3F801C
1F0008
1F0008
1F0008
1F0008
1F0008
1F0008
1F0008
1F0008
1F0008
1F0008
1F0008
1F0008
1F0008
1F0008
1F0008
1F0008
1F0018
0F8010
07C060
03F1C0
00FF00
ENDCHAR

STARTCHAR V
ENCODING 86
SWIDTH 719 0
DWIDTH 24 0
BBX 22 23 1 0
BITMAP
FFC1FC
7F0038
3F0030
3F0020
1F0060
1F8040
0F80C0
0FC080
0FC080
07C180
07E100
03E300
03F200
01F200
01F400
01FC00
00FC00
00F800
007800
007000
007000
003000
002000
ENDCHAR

STARTCHAR W
ENCODING 87
SWIDTH 990 0
DWIDTH 33 0
BBX 32 23 0 0
BITMAP
FF8FFC1F
3F03F006
3F03F006
3F01F004
1F01F80C
1F80F808
0F80F808
0F80FC18
0FC1FC10
07C17E10
07E13E20
03E33E20
03E23F60
03F61F40
01F41FC0
01FC1FC0
00F80F80
00F80F80
00F80700
00700700
00700700
00200200
00200200
ENDCHAR

STARTCHAR X
ENCODING 88
SWIDTH 719 0
DWIDTH 24 0
BBX 22 23 1 0
BITMAP
FFC3FC
7F00E0
3F00C0
1F8080
0FC180
0FC300
07E200
07F400
03FC00
01F800
01FC00
00FC00
007E00
00FE00
00BF00
011F80
031F80
060FC0
040FE0
0807E0
1803F0
3807F8
FF0FFC
ENDCHAR

STARTCHAR Y
ENCODING 89
SWIDTH 719 0
DWIDTH 24 0
BBX 23 23 1 0
BITMAP
FFC0FE
3F0038
3F0030
1F8020
0F8020
0FC040
07C0C0
07E080
03E180
03F100
01FB00
01FA00
00FE00
00FC00
007C00
007C00
007C00
007C00
007C00
007C00
007C00
00FE00
07FFC0
ENDCHAR

STARTCHAR Z
ENCODING 90
SWIDTH 719 0
DWIDTH 24 0
BBX 22 23 1 0
BITMAP
3FFFF0
3C07E0
3807E0
300FC0
200FC0
201F80
203F00
003F00
007E00
00FC00
00FC00
01F800
01F800
03F000
07E000
07E004
0FC004
0FC008
1F8008
3F0018
3F0038
7E00F8
FFFFF8
ENDCHAR

STARTCHAR bracketleft
ENCODING 91
SWIDTH 271 0
DWIDTH 9 0
BBX 6 29 2 -6
BITMAP
FC
F0
F0
F0
F0
F0
F0
F0
F0
F0
F0
F0
F0
F0
F0
F0
F0
F0
F0
F0
F0
F0
F0
F0
F0
F0
F0
F0
FC
ENDCHAR

STARTCHAR backslash
ENCODING 92
SWIDTH 281 0
DWIDTH 9 0
BBX 9 24 0 -1
BITMAP
F000
F000
7000
7800
7800
7800
7800
3800
3C00
3C00
3C00
1C00
1E00
1E00
1E00
0E00
0F00
0F00
0F00
0700
0780
0780
0780
0780
ENDCHAR

STARTCHAR bracketright
ENCODING 93
SWIDTH 271 0
DWIDTH 9 0
BBX 6 29 1 -6
BITMAP
FC
3C
3C
3C
3C
3C
3C
3C
3C
3C
3C
3C
3C
3C
3C
3C
3C
3C
3C
3C
3C
3C
3C
3C
3C
3C
3C
3C
FC
ENDCHAR

STARTCHAR asciicircum
ENCODING 94
SWIDTH 510 0
DWIDTH 17 0
BBX 15 12 1 11
BITMAP
0100
0380
0380
07C0
0EC0
0CE0
1C70
1870
3838
3038
701C
E00E
ENDCHAR

STARTCHAR underscore
ENCODING 95
SWIDTH 500 0
DWIDTH 17 0
BBX 17 2 0 -4
BITMAP
FFFF80
FFFF80
ENDCHAR

STARTCHAR quoteleft
ENCODING 96
SWIDTH 271 0
DWIDTH 9 0
BBX 6 11 1 12
BITMAP
04
18
20
60
40
C0
F8
FC
FC
7C
38
ENDCHAR

STARTCHAR a
ENCODING 97
SWIDTH 500 0
DWIDTH 17 0
BBX 15 16 1 0
BITMAP
0FE0
38F0
70F8
78F8
78F8
78F8
01F8
0778
1CF8
38F8
78F8
F8F8
F8F8
FF7A
7E7C
3838
ENDCHAR

STARTCHAR b
ENCODING 98
SWIDTH 500 0
DWIDTH 17 0
BBX 15 23 1 0
BITMAP
FC00
7C00
7C00
7C00
7C00
7C00
7C00
7DE0
7DF8
7E7C
7C3C
7C3E
7C3E
7C3E
7C3E
7C3E
7C3E
7C3C
7C3C
7C3C
7C78
7670
63C0
ENDCHAR

STARTCHAR c
ENCODING 99
SWIDTH 437 0
DWIDTH 14 0
BBX 13 16 1 0
BITMAP
0FC0
1CF0
38F0
70F8
7078
F030
F000
F000
F000
F800
F800
FC00
7C08
7F30
3FE0
0FC0
ENDCHAR

STARTCHAR d
ENCODING 100
SWIDTH 500 0
DWIDTH 17 0
BBX 16 23 1 0
BITMAP
01FC
007C
007C
007C
007C
007C
007C
0E7C
1FBC
3CFC
787C
787C
F87C
F87C
F87C
F87C
F87C
F87C
787C
7C7C
3CFC
3FBF
0E70
ENDCHAR

STARTCHAR e
ENCODING 101
SWIDTH 437 0
DWIDTH 14 0
BBX 13 16 1 0
BITMAP
0F80
1CC0
38E0
7870
7070
F078
F078
FFF8
F000
F000
F800
F808
7C10
7E30
3FE0
1FC0
ENDCHAR

STARTCHAR f
ENCODING 102
SWIDTH 333 0
DWIDTH 11 0
BBX 12 23 1 0
BITMAP
07E0
0EF0
1EF0
1EE0
3E00
3E00
3E00
FF80
FF80
3E00
3E00
3E00
3E00
3E00
3E00
3E00
3E00
3E00
3E00
3E00
3E00
3E00
FF80
ENDCHAR

STARTCHAR g
ENCODING 103
SWIDTH 500 0
DWIDTH 17 0
BBX 15 23 1 -7
BITMAP
0FFE
3CFE
7870
7878
F878
F878
7878
7878
3870
14E0
0FC0
1000
3000
7000
7FF8
7FFC
7FFE
1FFE
701E
E00E
E00C
7838
3FE0
ENDCHAR

STARTCHAR h
ENCODING 104
SWIDTH 500 0
DWIDTH 17 0
BBX 15 23 1 0
BITMAP
FC00
7C00
7C00
7C00
7C00
7C00
7C00
7CF0
7DF8
7E78
7C7C
7C7C
7C7C
7C7C
7C7C
7C7C
7C7C
7C7C
7C7C
7C7C
7C7C
7C7C
FEFE
ENDCHAR

STARTCHAR i
ENCODING 105
SWIDTH 271 0
DWIDTH 9 0
BBX 8 23 0 0
BITMAP
1C
3E
3E
3E
1C
00
00
FE
3E
3E
3E
3E
3E
3E
3E
3E
3E
3E
3E
3E
3E
3E
FF
ENDCHAR

STARTCHAR j
ENCODING 106
SWIDTH 271 0
DWIDTH 9 0
BBX 8 29 -1 -6
BITMAP
0E
1F
1F
1F
0E
00
00
7F
1F
1F
1F
1F
1F
1F
1F
1F
1F
1F
1F
1F
1F
1F
0F
0F
0F
07
E6
F6
7C
ENDCHAR

STARTCHAR k
ENCODING 107
SWIDTH 552 0
DWIDTH 18 0
BBX 18 23 0 0
BITMAP
FE0000
3E0000
3E0000
3E0000
3E0000
3E0000
3E0000
3E3F00
3E1C00
3E1800
3E1000
3E2000
3E4000
3EE000
3EF000
3FF000
3EF800
3E7C00
3E7C00
3E3E00
3E1F00
3E1F00
FFBFC0
ENDCHAR

STARTCHAR l
ENCODING 108
SWIDTH 271 0
DWIDTH 9 0
BBX 8 23 0 0
BITMAP
FE
3E
3E
3E
3E
3E
3E
3E
3E
3E
3E
3E
3E
3E
3E
3E
3E
3E
3E
3E
3E
3E
FF
ENDCHAR

STARTCHAR m
ENCODING 109
SWIDTH 771 0
DWIDTH 25 0
BBX 24 16 1 0
BITMAP
FCF0F8
7DFDFC
7E7F3E
7C3E3E
7C3C3E
7C3C3E
7C3C3E
7C3C3E
7C3C3E
7C3C3E
7C3C3E
7C3C3E
7C3C3E
7C3C3E
7C7E3E
FEFF7F
ENDCHAR

STARTCHAR n
ENCODING 110
SWIDTH 500 0
DWIDTH 17 0
BBX 15 16 1 0
BITMAP
FCF0
7FF8
7E78
7C7C
7C7C
7C7C
7C7C
7C7C
7C7C
7C7C
7C7C
7C7C
7C7C
7C7C
7C7C
FEFE
ENDCHAR

STARTCHAR o
ENCODING 111
SWIDTH 500 0
DWIDTH 17 0
BBX 15 16 1 0
BITMAP
0FC0
1C70
3C38
783C
783C
F83E
F83E
F83E
F83E
F83E
F83E
783C
783C
3C38
1C70
07C0
ENDCHAR

STARTCHAR p
ENCODING 112
SWIDTH 500 0
DWIDTH 17 0
BBX 16 23 0 -7
BITMAP
FEF0
3EFC
3F3E
3E1E
3E1E
3E1F
3E1F
3E1F
3E1F
3E1F
3E1F
3E1E
3E1E
3F3C
3EF8
3E70
3E00
3E00
3E00
3E00
3E00
3E00
FF80
ENDCHAR

STARTCHAR q
ENCODING 113
SWIDTH 505 0
DWIDTH 17 0
BBX 15 23 1 -7
BITMAP
0784
1CEC
3C7C
787C
787C
787C
F87C
F87C
F87C
F87C
F87C
787C
787C
7CFC
3FBC
0F7C
007C
007C
007C
007C
007C
007C
01FE
ENDCHAR

STARTCHAR r
ENCODING 114
SWIDTH 385 0
DWIDTH 13 0
BBX 11 16 1 0
BITMAP
FCE0
7DE0
7DE0
7EE0
7C00
7C00
7C00
7C00
7C00
7C00
7C00
7C00
7C00
7C00
7C00
FF00
ENDCHAR

STARTCHAR s
ENCODING 115
SWIDTH 385 0
DWIDTH 13 0
BBX 11 16 1 0
BITMAP
3E40
71C0
E0C0
E040
F040
FC00
FF00
7FC0
3FC0
0FE0
03E0
81E0
C0E0
C0E0
F1C0
8F00
ENDCHAR

STARTCHAR t
ENCODING 116
SWIDTH 333 0
DWIDTH 11 0
BBX 10 21 0 0
BITMAP
0200
0600
0E00
1E00
3E00
7FC0
FFC0
3E00
3E00
3E00
3E00
3E00
3E00
3E00
3E00
3E00
3E00
3E40
3E40
1F80
0F00
ENDCHAR

STARTCHAR u
ENCODING 117
SWIDTH 500 0
DWIDTH 17 0
BBX 16 16 0 0
BITMAP
FCFE
7C3E
7C3E
7C3E
7C3E
7C3E
7C3E
7C3E
7C3E
7C3E
7C3E
7C3E
7C3E
3EFE
3FBE
1F3F
ENDCHAR

STARTCHAR v
ENCODING 118
SWIDTH 437 0
DWIDTH 14 0
BBX 14 16 0 0
BITMAP
FF3C
3E18
3E18
3E10
1E10
1F20
0F20
0FA0
0FC0
07C0
07C0
0780
0380
0300
0300
0100
ENDCHAR

STARTCHAR w
ENCODING 119
SWIDTH 667 0
DWIDTH 22 0
BBX 21 16 1 0
BITMAP
FEFF78
7C7C30
7C3C30
3C3E20
3E7E20
3E5E60
1E5F40
1FDF40
1F8F80
0F8F80
0F8F80
0F0700
070700
070700
060200
020200
ENDCHAR

STARTCHAR x
ENCODING 120
SWIDTH 552 0
DWIDTH 18 0
BBX 17 16 1 0
BITMAP
FF1F00
7E0C00
3E0800
1F1800
1FB000
0FA000
07C000
03E000
01E000
03F000
02F800
04F800
087C00
107E00
383F00
FCFF80
ENDCHAR

STARTCHAR y
ENCODING 121
SWIDTH 500 0
DWIDTH 17 0
BBX 15 23 1 -7
BITMAP
FF3E
7C0C
7C08
3E08
3E10
1F10
1F10
0F20
0FA0
0FA0
07C0
07C0
03C0
0380
0380
0180
0100
0100
6100
F200
F200
7C00
3800
ENDCHAR

STARTCHAR z
ENCODING 122
SWIDTH 437 0
DWIDTH 14 0
BBX 14 16 0 0
BITMAP
3FFC
30F8
20F8
21F0
21F0
03E0
03E0
07C0
0FC0
0F80
1F00
1F04
3E0C
3E08
7C38
FFF8
ENDCHAR

STARTCHAR braceleft
ENCODING 123
SWIDTH 396 0
DWIDTH 13 0
BBX 8 29 3 -6
BITMAP
07
1C
18
38
38
3C
3C
3C
1C
1C
1C
18
38
A0
C0
30
38
1C
1C
1C
3C
3C
3C
38
38
38
1C
0E
03
ENDCHAR

STARTCHAR bar
ENCODING 124
SWIDTH 219 0
DWIDTH 7 0
BBX 3 30 2 -7
BITMAP
E0
E0
E0
E0
E0
E0
E0
E0
E0
E0
E0
E0
E0
E0
E0
E0
E0
E0
E0
E0
E0
E0
E0
E0
E0
E0
E0
E0
E0
E0
ENDCHAR

STARTCHAR braceright
ENCODING 125
SWIDTH 396 0
DWIDTH 13 0
BBX 9 29 1 -6
BITMAP
F000
3800
1C00
1E00
1E00
1E00
1E00
1C00
1C00
1C00
1C00
0C00
0600
0300
0180
0700
0E00
1C00
1C00
1C00
1E00
1E00
1E00
0E00
0E00
0E00
1C00
3800
6000
ENDCHAR

STARTCHAR asciitilde
ENCODING 126
SWIDTH 667 0
DWIDTH 22 0
BBX 18 6 2 8
BITMAP
1E0040
7FC0C0
7FF0C0
C3FF80
C0FF80
801E00
ENDCHAR

STARTCHAR space
ENCODING 160
SWIDTH 250 0
DWIDTH 9 0
BBX 0 0 0 0
BITMAP
ENDCHAR

STARTCHAR afii10023
ENCODING 161
SWIDTH 667 0
DWIDTH 22 0
BBX 20 29 1 0
BITMAP
0E0E00
1F1F00
1F1F00
1F1F00
040400
000000
FFFFC0
3F03C0
1F00C0
1F0040
1F0040
1F0840
1F0840
1F0800
1F0800
1F1800
1F3800
1FF800
1F1800
1F1800
1F0800
1F0800
1F0810
1F0010
1F0020
1F0060
1F00E0
3F83E0
FFFFE0
ENDCHAR

STARTCHAR afii10051
ENCODING 162
SWIDTH 823 0
DWIDTH 27 0
BBX 26 23 0 0
BITMAP
FFFFF000
F1F0F000
C1F03000
C1F03000
81F01000
01F00000
01F00000
01F0F800
01F3FE00
01F7FF00
01FC1F80
01F01F80
01F00FC0
01F00FC0
01F00FC0
01F00FC0
01F00FC0
01F00FC0
01F00F80
01F00F80
01F00F00
03F85E00
0FFE7800
ENDCHAR

STARTCHAR afii10052
ENCODING 163
SWIDTH 646 0
DWIDTH 21 0
BBX 20 29 1 0
BITMAP
00FE00
01F800
03E000
078000
000000
000000
FFFFF0
1F0070
1F0030
1F0010
1F0010
1F0010
1F0000
1F0000
1F0000
1F0000
1F0000
1F0000
1F0000
1F0000
1F0000
1F0000
1F0000
1F0000
1F0000
1F0000
1F0000
3F8000
FFF000
ENDCHAR

STARTCHAR afii10053
ENCODING 164
SWIDTH 698 0
DWIDTH 23 0
BBX 21 23 1 0
BITMAP
01FF08
07E1F8
0F8078
1F0038
3E0018
3E0018
7E0008
7C0000
FC0000
FC0000
FC0000
FFFE00
FC0000
FC0000
FC0000
7C0000
7E0000
7E0000
3E0008
1F0018
0F8020
03E1C0
00FF00
ENDCHAR

STARTCHAR afii10054
ENCODING 165
SWIDTH 604 0
DWIDTH 20 0
BBX 18 23 1 0
BITMAP
0FF100
3C1D00
700700
F00380
E00180
F00180
F00080
FC0000
FF8000
7FF000
3FFC00
1FFF00
07FF80
00FF80
003FC0
800FC0
8007C0
8003C0
C003C0
E00380
F00700
FC1E00
87F800
ENDCHAR

STARTCHAR afii10055
ENCODING 166
SWIDTH 385 0
DWIDTH 13 0
BBX 11 23 1 0
BITMAP
FFE0
3F80
1F00
1F00
1F00
1F00
1F00
1F00
1F00
1F00
1F00
1F00
1F00
1F00
1F00
1F00
1F00
1F00
1F00
1F00
1F00
3F80
FFE0
ENDCHAR

STARTCHAR afii10056
ENCODING 167
SWIDTH 385 0
DWIDTH 13 0
BBX 13 29 0 0
BITMAP
7070
F8F8
F8F8
F8F8
7070
0000
7FF0
1FC0
0F80
0F80
0F80
0F80
0F80
0F80
0F80
0F80
0F80
0F80
0F80
0F80
0F80
0F80
0F80
0F80
0F80
0F80
0F80
1FC0
7FF0
ENDCHAR

STARTCHAR afii10057
ENCODING 168
SWIDTH 552 0
DWIDTH 18 0
BBX 17 23 1 0
BITMAP
07FF80
00FE00
007C00
007C00
007C00
007C00
007C00
007C00
007C00
007C00
007C00
007C00
007C00
007C00
007C00
007C00
707C00
F87C00
F87C00
F87C00
707800
38F000
0FC000
ENDCHAR

STARTCHAR afii10058
ENCODING 169
SWIDTH 979 0
DWIDTH 32 0
BBX 31 23 0 0
BITMAP
03FFFC00
0041F000
0041F000
0041F000
0041F000
0041F000
0041F000
0041F000
0041F000
0041F000
0041FF00
0041FFF0
0041F1F8
0041F0FC
0041F07C
00C1F07E
00C1F07E
0081F07E
F081F07E
F181F07C
F301F0FC
FE03F9F0
780FFFE0
ENDCHAR

STARTCHAR afii10059
ENCODING 170
SWIDTH 1000 0
DWIDTH 33 0
BBX 32 23 0 0
BITMAP
FFEFFE00
3F83F800
1F01F000
1F01F000
1F01F000
1F01F000
1F01F000
1F01F000
1F01F000
1F01F000
1F01F000
1FFFFFF0
1F01F1FC
1F01F07E
1F01F07E
1F01F03F
1F01F03F
1F01F03F
1F01F03F
1F01F03F
1F01F07E
1F81F8FC
FFEFFFF0
ENDCHAR

STARTCHAR afii10060
ENCODING 171
SWIDTH 823 0
DWIDTH 27 0
BBX 27 23 0 0
BITMAP
FFFFE000
F1F1E000
C1F06000
C1F06000
81F02000
01F00000
01F00000
01F0F800
01F3FE00
01F7FE00
01FC3F00
01F01F00
01F01F00
01F01F00
01F01F00
01F01F00
01F01F00
01F01F00
01F01F00
01F01F00
01F01F00
03F83F80
0FFEFFE0
ENDCHAR

STARTCHAR afii10061
ENCODING 172
SWIDTH 756 0
DWIDTH 25 0
BBX 24 28 1 0
BITMAP
003F80
007C00
00F000
01C000
000000
FFE07C
3F80FE
1F009E
1F019E
1F010E
1F0100
1F0300
1F0300
1F0200
1F0600
1F0C00
1FF800
1F3E00
1F3F00
1F1F80
1F0FC0
1F0FC0
1F07E0
1F03F0
1F03F0
1F01F8
3F80FC
FFE0FF
ENDCHAR

STARTCHAR hyphen
ENCODING 173
SWIDTH 333 0
DWIDTH 11 0
BBX 9 3 1 6
BITMAP
FF80
FF80
FF80
ENDCHAR

STARTCHAR afii10062
ENCODING 174
SWIDTH 760 0
DWIDTH 25 0
BBX 25 29 0 0
BITMAP
01E07000
01E0F000
00F1E000
007FC000
00000000
00000000
FFE07F80
3F800600
1F800C00
0F800C00
0FC00800
07E01800
07E01000
03F03000
01F82000
01F86000
00FC4000
00FCC000
007E8000
003F8000
003F0000
001E0000
000E0000
00040000
078C0000
07880000
07980000
03F00000
01E00000
ENDCHAR

STARTCHAR afii10145
ENCODING 175
SWIDTH 833 0
DWIDTH 27 0
BBX 26 30 1 -7
BITMAP
FFE1FFC0
3F807F00
1F003E00
1F003E00
1F003E00
1F003E00
1F003E00
1F003E00
1F003E00
1F003E00
1F003E00
1F003E00
1F003E00
1F003E00
1F003E00
1F003E00
1F003E00
1F003E00
1F003E00
1F003E00
1F003E00
1F003E00
FFFFFFC0
007F8000
001E0000
000C0000
000C0000
00040000
00040000
00040000
ENDCHAR

STARTCHAR afii10017
ENCODING 176
SWIDTH 719 0
DWIDTH 24 0
BBX 23 23 0 0
BITMAP
000800
001800
001800
003C00
003C00
003C00
007E00
007E00
00DF00
009F00
019F80
010F80
010F80
020FC0
0207C0
07FFE0
0403E0
0C03F0
0803F0
0801F0
1801F8
3801FC
FF07FE
ENDCHAR

STARTCHAR afii10018
ENCODING 177
SWIDTH 668 0
DWIDTH 22 0
BBX 20 23 1 0
BITMAP
FFFFC0
1F01C0
1F00C0
1F0040
1F0040
1F0040
1F0000
1F0000
1F0000
1F0000
1FF800
1FFF80
1F0FC0
1F07E0
1F03E0
1F03F0
1F03F0
1F03F0
1F03F0
1F03E0
1F07E0
1F8FC0
FFFF00
ENDCHAR

STARTCHAR afii10019
ENCODING 178
SWIDTH 677 0
DWIDTH 22 0
BBX 21 23 1 0
BITMAP
FFFE00
3F1F80
1F07E0
1F03E0
1F03F0
1F03F0
1F03F0
1F03F0
1F03E0
1F07C0
1F1D80
1FFE00
1F0FC0
1F07E0
1F03F0
1F01F8
1F01F8
1F01F8
1F01F8
1F03F0
1F03F0
1F8FC0
FFFF00
ENDCHAR

STARTCHAR afii10020
ENCODING 179
SWIDTH 646 0
DWIDTH 21 0
BBX 20 23 1 0
BITMAP
FFFFF0
1F00F0
1F0030
1F0010
1F0010
1F0010
1F0000
1F0000
1F0000
1F0000
1F0000
1F0000
1F0000
1F0000
1F0000
1F0000
1F0000
1F0000
1F0000
1F0000
1F0000
3F8000
FFF000
ENDCHAR

STARTCHAR afii10021
ENCODING 180
SWIDTH 719 0
DWIDTH 24 0
BBX 23 30 0 -7
BITMAP
07FFFE
0081F0
0081F0
0081F0
0081F0
0081F0
0081F0
0081F0
0081F0
0081F0
0181F0
0181F0
0181F0
0181F0
0101F0
0101F0
0301F0
0201F0
0601F0
0601F0
0C01F0
1801F0
FFFFFE
FC003E
F0000E
E00006
C00002
C00002
800002
800002
ENDCHAR

STARTCHAR afii10022
ENCODING 181
SWIDTH 667 0
DWIDTH 22 0
BBX 20 23 1 0
BITMAP
FFFFE0
3F01E0
1F00E0
1F0060
1F0020
1F0420
1F0420
1F0400
1F0C00
1F0C00
1F1C00
1FFC00
1F1C00
1F0C00
1F0C00
1F0400
1F0410
1F0010
1F0010
1F0030
1F0070
3F81E0
FFFFE0
ENDCHAR

STARTCHAR afii10024
ENCODING 182
SWIDTH 980 0
DWIDTH 32 0
BBX 31 23 1 0
BITMAP
7C3FF87C
7E07C0FE
F207C09E
F307C19E
7307C19C
0107C100
0107C100
0187C300
0087C200
00C7C600
007FFC00
00FFFE00
01E7CF00
03E7CF80
07C7C7C0
07C7C7C0
0F87C3E0
0F87C3E0
1F07C1F0
1F07C1F8
3E07C0F8
7E07E0FC
FC3FF87E
ENDCHAR

STARTCHAR afii10025
ENCODING 183
SWIDTH 546 0
DWIDTH 18 0
BBX 16 23 1 0
BITMAP
5FE0
71F8
607C
407C
407E
407E
407E
007C
007C
00F8
0180
0FE0
01F8
007C
003E
003F
003F
003F
003F
803E
C07E
71FC
1FF0
ENDCHAR

STARTCHAR afii10026
ENCODING 184
SWIDTH 833 0
DWIDTH 27 0
BBX 26 23 1 0
BITMAP
FFE1FFC0
3F807F00
1F003E00
1F003E00
1F007E00
1F00FE00
1F00BE00
1F01BE00
1F033E00
1F063E00
1F063E00
1F0C3E00
1F183E00
1F103E00
1F303E00
1F603E00
1FC03E00
1FC03E00
1F803E00
1F003E00
1F003E00
3F807F00
FFE1FFC0
ENDCHAR

STARTCHAR afii10027
ENCODING 185
SWIDTH 833 0
DWIDTH 27 0
BBX 26 29 1 0
BITMAP
01C0F000
01E0F000
00F1E000
007FC000
00000000
00000000
FFE1FFC0
3F807F00
1F003E00
1F007E00
1F007E00
1F00DE00
1F01BE00
1F01BE00
1F033E00
1F063E00
1F063E00
1F0C3E00
1F183E00
1F183E00
1F303E00
1F603E00
1F603E00
1FC03E00
1F803E00
1F803E00
1F003E00
3F807F00
FFE1FFC0
ENDCHAR

STARTCHAR afii10028
ENCODING 186
SWIDTH 756 0
DWIDTH 25 0
BBX 24 23 1 0
BITMAP
FFE07C
3F80FE
1F009E
1F019E
1F010E
1F0100
1F0300
1F0300
1F0200
1F0600
1F0C00
1FF800
1F3E00
1F3F00
1F1F80
1F0FC0
1F0FC0
1F07E0
1F03F0
1F03F0
1F01F8
3F80FC
FFE0FF
ENDCHAR

STARTCHAR afii10029
ENCODING 187
SWIDTH 720 0
DWIDTH 24 0
BBX 23 23 0 0
BITMAP
07FFFE
0081F0
0081F0
0081F0
0081F0
0081F0
0081F0
0081F0
0081F0
0081F0
0081F0
0081F0
0081F0
0081F0
0081F0
0181F0
0181F0
0181F0
F101F0
F101F0
F301F0
FE03F8
7C0FFE
ENDCHAR

STARTCHAR afii10030
ENCODING 188
SWIDTH 990 0
DWIDTH 33 0
BBX 32 23 0 0
BITMAP
FF8001FF
3FC001FC
17C00378
17C002F8
17E006F8
13E004F8
13F00CF8
11F008F8
11F818F8
10F810F8
10FC10F8
10FC20F8
107E20F8
107E40F8
103F40F8
103FC0F8
101F80F8
101F80F8
100F00F8
100F00F8
100600F8
380601FC
FE0207FF
ENDCHAR

STARTCHAR afii10031
ENCODING 189
SWIDTH 823 0
DWIDTH 27 0
BBX 26 23 1 0
BITMAP
FFE1FFC0
3F807F00
1F003E00
1F003E00
1F003E00
1F003E00
1F003E00
1F003E00
1F003E00
1F003E00
1F003E00
1FFFFE00
1F003E00
1F003E00
1F003E00
1F003E00
1F003E00
1F003E00
1F003E00
1F003E00
1F003E00
3F807F00
FFE1FFC0
ENDCHAR

STARTCHAR afii10032
ENCODING 190
SWIDTH 823 0
DWIDTH 27 0
BBX 25 23 1 0
BITMAP
00FF8000
03C1E000
0F80F800
1F007C00
3E003E00
3E003E00
7E003F00
7C001F00
FC001F80
FC001F80
FC001F80
FC001F80
FC001F80
FC001F80
FC001F80
7C001F00
7E003F00
3E003E00
3E003E00
1F007C00
0F80F800
03C3E000
00FF8000
ENDCHAR

STARTCHAR afii10033
ENCODING 191
SWIDTH 833 0
DWIDTH 27 0
BBX 26 23 1 0
BITMAP
FFFFFFC0
1F003E00
1F003E00
1F003E00
1F003E00
1F003E00
1F003E00
1F003E00
1F003E00
1F003E00
1F003E00
1F003E00
1F003E00
1F003E00
1F003E00
1F003E00
1F003E00
1F003E00
1F003E00
1F003E00
1F003E00
3F807F00
FFE1FFC0
ENDCHAR

STARTCHAR afii10034
ENCODING 192
SWIDTH 667 0
DWIDTH 22 0
BBX 20 23 1 0
BITMAP
FFFE00
1F0F80
1F07E0
1F03E0
1F03F0
1F03F0
1F03F0
1F03F0
1F03E0
1F07C0
1F0F80
1FFE00
1F0000
1F0000
1F0000
1F0000
1F0000
1F0000
1F0000
1F0000
1F0000
3F8000
FFE000
ENDCHAR

STARTCHAR afii10035
ENCODING 193
SWIDTH 719 0
DWIDTH 24 0
BBX 21 23 1 0
BITMAP
00FF08
03E1F8
0F8078
1F0018
1F0018
3E0008
7E0008
7C0000
7C0000
FC0000
FC0000
FC0000
FC0000
FC0000
FC0000
7C0000
7E0000
3E0000
3F0008
1F0018
0F8060
03E1C0
00FF00
ENDCHAR

STARTCHAR afii10036
ENCODING 194
SWIDTH 667 0
DWIDTH 22 0
BBX 21 23 1 0
BITMAP
FFFFF8
E0F878
C0F818
C0F818
80F808
80F808
00F800
00F800
00F800
00F800
00F800
00F800
00F800
00F800
00F800
00F800
00F800
00F800
00F800
00F800
00F800
01FC00
07FF00
ENDCHAR

STARTCHAR afii10037
ENCODING 195
SWIDTH 760 0
DWIDTH 25 0
BBX 25 23 0 0
BITMAP
FFE07F80
3F800600
1F800C00
0F800C00
0FC00800
07E01800
07E01000
03F03000
01F82000
01F86000
00FC4000
00FCC000
007E8000
003F8000
003F0000
001E0000
000E0000
00040000
078C0000
07880000
07980000
03F00000
01E00000
ENDCHAR

STARTCHAR afii10038
ENCODING 196
SWIDTH 878 0
DWIDTH 29 0
BBX 26 23 2 0
BITMAP
01FFE000
003F0000
003E0000
01FFC000
0FFFFC00
1E3E1E00
3C3E0F00
7C3E0F80
F83E0FC0
F83E07C0
F83E07C0
F83E07C0
F83E07C0
F83E07C0
783E0FC0
7C3E0F80
3C3E1F00
1E3E3E00
07FFF800
003E0000
003E0000
003F0000
01FFE000
ENDCHAR

STARTCHAR afii10039
ENCODING 197
SWIDTH 719 0
DWIDTH 24 0
BBX 22 23 1 0
BITMAP
FFC3FC
7F00E0
3F00C0
1F8080
0FC180
0FC300
07E200
07F400
03FC00
01F800
01FC00
00FC00
007E00
00FE00
00BF00
011F80
031F80
060FC0
040FE0
0807E0
1803F0
3807F8
FF0FFC
ENDCHAR

STARTCHAR afii10040
ENCODING 198
SWIDTH 833 0
DWIDTH 27 0
BBX 26 30 1 -7
BITMAP
FFE1FFC0
3F807F00
1F003E00
1F003E00
1F003E00
1F003E00
1F003E00
1F003E00
1F003E00
1F003E00
1F003E00
1F003E00
1F003E00
1F003E00
1F003E00
1F003E00
1F003E00
1F003E00
1F003E00
1F003E00
1F003E00
1F003E00
FFFFFF80
00000FC0
000001C0
000000C0
000000C0
00000040
00000040
00000040
ENDCHAR

STARTCHAR afii10041
ENCODING 199
SWIDTH 771 0
DWIDTH 25 0
BBX 24 23 1 0
BITMAP
FFE7FF
3F81FC
1F00F8
1F00F8
1F00F8
1F00F8
1F00F8
1F00F8
1F00F8
1F00F8
1F00F8
1F83F8
0FFEF8
07F0F8
0000F8
0000F8
0000F8
0000F8
0000F8
0000F8
0000F8
0001FC
0007FF
ENDCHAR

STARTCHAR afii10042
ENCODING 200
SWIDTH 1096 0
DWIDTH 36 0
BBX 35 23 1 0
BITMAP
FF87FC3FE0
7F03F81FC0
3E01F00F80
3E01F00F80
3E01F00F80
3E01F00F80
3E01F00F80
3E01F00F80
3E01F00F80
3E01F00F80
3E01F00F80
3E01F00F80
3E01F00F80
3E01F00F80
3E01F00F80
3E01F00F80
3E01F00F80
3E01F00F80
3E01F00F80
3E01F00F80
3E01F00F80
3F03F81F80
FFFFFFFFE0
ENDCHAR

STARTCHAR afii10043
ENCODING 201
SWIDTH 1096 0
DWIDTH 36 0
BBX 35 30 1 -7
BITMAP
FF87FC3FE0
7F03F81FC0
3E01F00F80
3E01F00F80
3E01F00F80
3E01F00F80
3E01F00F80
3E01F00F80
3E01F00F80
3E01F00F80
3E01F00F80
3E01F00F80
3E01F00F80
3E01F00F80
3E01F00F80
3E01F00F80
3E01F00F80
3E01F00F80
3E01F00F80
3E01F00F80
3E01F00F80
3F03F81F80
FFFFFFFFE0
00000003E0
00000000E0
0000000060
0000000020
0000000020
0000000020
0000000020
ENDCHAR

STARTCHAR afii10044
ENCODING 202
SWIDTH 771 0
DWIDTH 25 0
BBX 23 23 1 0
BITMAP
FFFC00
E3E000
83E000
83E000
83E000
83E000
03E000
03E000
03E000
03E000
03FF80
03FFF0
03E1F8
03E0FC
03E07E
03E07E
03E07E
03E07E
03E07E
03E07C
03E0F8
07F1F0
1FFFC0
ENDCHAR

STARTCHAR afii10045
ENCODING 203
SWIDTH 1000 0
DWIDTH 33 0
BBX 31 23 1 0
BITMAP
FFE00FFE
3F8003F8
1F0001F0
1F0001F0
1F0001F0
1F0001F0
1F0001F0
1F0001F0
1F0001F0
1F0001F0
1F0001F0
1FFF01F0
1F1FC1F0
1F07E1F0
1F03F1F0
1F03F1F0
1F03F1F0
1F03F1F0
1F03F1F0
1F03E1F0
1F07C1F0
3F9F83F8
FFFC0FFE
ENDCHAR

STARTCHAR afii10046
ENCODING 204
SWIDTH 667 0
DWIDTH 22 0
BBX 20 23 1 0
BITMAP
FFE000
3F8000
1F0000
1F0000
1F0000
1F0000
1F0000
1F0000
1F0000
1F0000
1F0000
1FFF00
1F1FC0
1F07E0
1F07E0
1F03F0
1F03F0
1F03F0
1F03F0
1F03E0
1F07E0
1F8F80
FFFF00
ENDCHAR

STARTCHAR afii10047
ENCODING 205
SWIDTH 698 0
DWIDTH 23 0
BBX 21 23 1 0
BITMAP
87FC00
FC3F00
F00F80
E007C0
C003E0
C003E0
8001F0
0001F0
0001F8
0001F8
0001F8
03FFF8
0001F8
0001F8
0001F8
0001F0
0001F0
0003F0
8003E0
4007C0
200F80
183E00
07F800
ENDCHAR

STARTCHAR afii10048
ENCODING 206
SWIDTH 1152 0
DWIDTH 38 0
BBX 36 23 1 0
BITMAP
FFE00FF000
3F807C3C00
1F00F01F00
1F01F00F80
1F03E007C0
1F07E007C0
1F07C007E0
1F0FC003E0
1F0FC003F0
1F0FC003F0
1F0FC003F0
1FFFC003F0
1F0FC003F0
1F0FC003F0
1F0FC003F0
1F0FC003E0
1F07C007E0
1F07C007C0
1F03E007C0
1F01F00F80
1F00F01F00
3F803C3C00
FFE00FF000
ENDCHAR

STARTCHAR afii10049
ENCODING 207
SWIDTH 719 0
DWIDTH 24 0
BBX 22 23 1 0
BITMAP
01FFFC
07C3E0
0F83E0
1F83E0
1F03E0
1F03E0
1F03E0
1F03E0
1F83E0
0F83E0
07C3E0
00FFE0
01FBE0
01F3E0
03F3E0
07E3E0
07C3E0
0FC3E0
0F83E0
1F83E0
3F03E0
7F07F0
FE1FFC
ENDCHAR

STARTCHAR afii10065
ENCODING 208
SWIDTH 500 0
DWIDTH 17 0
BBX 15 16 1 0
BITMAP
0FE0
38F0
70F8
78F8
78F8
78F8
01F8
0778
1CF8
38F8
78F8
F8F8
F8F8
FF7A
7E7C
3838
ENDCHAR

STARTCHAR afii10066
ENCODING 209
SWIDTH 500 0
DWIDTH 17 0
BBX 15 23 1 0
BITMAP
03FE
0FFC
1FF8
3FF0
3000
6000
6000
47C0
5C70
DC38
B83C
F83C
F83E
F83E
F83E
F83E
F83E
F83E
783C
783C
3C78
1C70
07C0
ENDCHAR

STARTCHAR afii10067
ENCODING 210
SWIDTH 507 0
DWIDTH 17 0
BBX 14 16 1 0
BITMAP
FFC0
7DF0
7C78
7C78
7C78
7C78
7CF0
7FC0
7DF8
7C7C
7C7C
7C7C
7C7C
7C78
7CF8
FFE0
ENDCHAR

STARTCHAR afii10068
ENCODING 211
SWIDTH 423 0
DWIDTH 14 0
BBX 13 16 1 0
BITMAP
FFF8
7C18
7C08
7C08
7C00
7C00
7C00
7C00
7C00
7C00
7C00
7C00
7C00
7C00
7C00
FE00
ENDCHAR

STARTCHAR afii10069
ENCODING 212
SWIDTH 515 0
DWIDTH 17 0
BBX 16 20 0 -4
BITMAP
1FFE
043C
043C
043C
043C
043C
043C
043C
0C3C
0C3C
083C
083C
183C
103C
207C
FFFF
E007
C003
8001
8001
ENDCHAR

STARTCHAR afii10070
ENCODING 213
SWIDTH 437 0
DWIDTH 14 0
BBX 13 16 1 0
BITMAP
0F80
1CC0
38E0
7870
7070
F078
F078
FFF8
F000
F000
F800
F808
7C10
7E30
3FE0
1FC0
ENDCHAR

STARTCHAR afii10072
ENCODING 214
SWIDTH 719 0
DWIDTH 24 0
BBX 22 16 1 0
BITMAP
71FE38
F87C7C
E8785C
E4789C
647898
047880
027900
07FF80
0F7BC0
1F7BE0
1E79E0
3E79F0
3C78F0
7C78F8
787C78
F9FE7C
ENDCHAR

STARTCHAR afii10073
ENCODING 215
SWIDTH 417 0
DWIDTH 14 0
BBX 13 16 0 0
BITMAP
6FC0
71E0
60F0
40F0
40F0
01F0
0340
0780
01F0
00F8
00F8
00F8
80F8
61F0
3FE0
0F80
ENDCHAR

STARTCHAR afii10074
ENCODING 216
SWIDTH 545 0
DWIDTH 18 0
BBX 16 16 1 0
BITMAP
FE7F
7C3E
7C3E
7C3E
7C7E
7C5E
7CDE
7CBE
7D3E
7F3E
7E3E
7E3E
7C3E
7C3E
7C3E
FE7F
ENDCHAR

STARTCHAR afii10075
ENCODING 217
SWIDTH 545 0
DWIDTH 18 0
BBX 16 23 1 0
BITMAP
1008
381C
3C3C
1C38
07E0
0000
0000
FE7F
7C3E
7C3E
7C3E
7C7E
7C5E
7CDE
7CBE
7D3E
7F3E
7E3E
7E3E
7C3E
7C3E
7C3E
FE7F
ENDCHAR

STARTCHAR afii10076
ENCODING 218
SWIDTH 560 0
DWIDTH 18 0
BBX 17 16 1 0
BITMAP
FE0E00
7C1F00
7C2780
7C2780
7C6700
7C4000
7CC000
7F8000
7DF000
7CF000
7CF800
7C7C00
7C7C00
7C3E00
7C3E00
FE1F80
ENDCHAR

STARTCHAR afii10077
ENCODING 219
SWIDTH 542 0
DWIDTH 18 0
BBX 17 16 0 0
BITMAP
0FFF80
021F00
021F00
021F00
021F00
021F00
021F00
021F00
021F00
021F00
021F00
721F00
721F00
F41F00
7C1F00
387F80
ENDCHAR

STARTCHAR afii10078
ENCODING 220
SWIDTH 647 0
DWIDTH 21 0
BBX 19 16 1 0
BITMAP
FC07E0
7C07C0
7E0FC0
5E0BC0
5E0BC0
5F17C0
5F17C0
4FA7C0
4FA7C0
47A7C0
47C7C0
47C7C0
4387C0
4387C0
4187C0
F11FE0
ENDCHAR

STARTCHAR afii10079
ENCODING 221
SWIDTH 543 0
DWIDTH 18 0
BBX 16 16 1 0
BITMAP
FE7F
7C3E
7C3E
7C3E
7C3E
7C3E
7C3E
7FFE
7C3E
7C3E
7C3E
7C3E
7C3E
7C3E
7C3E
FE7F
ENDCHAR

STARTCHAR afii10080
ENCODING 222
SWIDTH 500 0
DWIDTH 17 0
BBX 15 16 1 0
BITMAP
0FC0
1C70
3C38
783C
783C
F83E
F83E
F83E
F83E
F83E
F83E
783C
783C
3C78
1C70
07C0
ENDCHAR

STARTCHAR afii10081
ENCODING 223
SWIDTH 549 0
DWIDTH 18 0
BBX 16 16 1 0
BITMAP
FFFF
7C3E
7C3E
7C3E
7C3E
7C3E
7C3E
7C3E
7C3E
7C3E
7C3E
7C3E
7C3E
7C3E
7C3E
FE7F
ENDCHAR

STARTCHAR afii10082
ENCODING 224
SWIDTH 500 0
DWIDTH 17 0
BBX 16 23 0 -7
BITMAP
FEF0
3EFC
3F3E
3E1E
3E1E
3E1F
3E1F
3E1F
3E1F
3E1F
3E1F
3E1E
3E1E
3F3C
3EF8
3E70
3E00
3E00
3E00
3E00
3E00
3E00
FF80
ENDCHAR

STARTCHAR afii10083
ENCODING 225
SWIDTH 437 0
DWIDTH 14 0
BBX 13 16 1 0
BITMAP
0FC0
1CF0
38F0
70F8
7078
F030
F000
F000
F000
F800
F800
FC00
7C08
7F30
3FE0
0FC0
ENDCHAR

STARTCHAR afii10084
ENCODING 226
SWIDTH 490 0
DWIDTH 16 0
BBX 15 16 1 0
BITMAP
FFFE
C7C6
87C2
87C2
07C0
07C0
07C0
07C0
07C0
07C0
07C0
07C0
07C0
07C0
07C0
1FF0
ENDCHAR

STARTCHAR afii10085
ENCODING 227
SWIDTH 500 0
DWIDTH 17 0
BBX 15 23 1 -7
BITMAP
FF3E
7C0C
7C08
3E08
3E10
1F10
1F10
0F20
0FA0
0FA0
07C0
07C0
03C0
0380
0380
0180
0100
0100
6100
F200
F200
7C00
3800
ENDCHAR

STARTCHAR afii10086
ENCODING 228
SWIDTH 667 0
DWIDTH 22 0
BBX 21 29 1 -6
BITMAP
01F800
00F800
00F800
00F800
00F800
00F800
00F800
0EFB80
3FFFE0
3CF9F0
78F8F0
78F8F0
F8F8F8
F8F8F8
F8F8F8
F8F8F8
F8F8F8
78F8F8
78F8F0
78F8F0
3CF9E0
3FFFE0
0EFB80
00F800
00F800
00F800
00F800
00F800
01FC00
ENDCHAR

STARTCHAR afii10087
ENCODING 229
SWIDTH 552 0
DWIDTH 18 0
BBX 17 16 1 0
BITMAP
FF1F00
7E0C00
3E0800
1F1800
1FB000
0FA000
07C000
03E000
01E000
03F000
02F800
04F800
087C00
107E00
383F00
FCFF80
ENDCHAR

STARTCHAR afii10088
ENCODING 230
SWIDTH 552 0
DWIDTH 18 0
BBX 16 20 1 -4
BITMAP
FE7F
7C3E
7C3E
7C3E
7C3E
7C3E
7C3E
7C3E
7C3E
7C3E
7C3E
7C3E
7C3E
7C3E
7C3E
FFFF
0003
0001
0001
0001
ENDCHAR

STARTCHAR afii10089
ENCODING 231
SWIDTH 515 0
DWIDTH 17 0
BBX 15 16 1 0
BITMAP
FEFE
7C7C
7C7C
7C7C
7C7C
7C7C
7C7C
3C7C
3FBC
0C7C
007C
007C
007C
007C
007C
00FE
ENDCHAR

STARTCHAR afii10090
ENCODING 232
SWIDTH 814 0
DWIDTH 27 0
BBX 25 16 1 0
BITMAP
FE7F3F80
7C3E1F00
7C3E1F00
7C3E1F00
7C3E1F00
7C3E1F00
7C3E1F00
7C3E1F00
7C3E1F00
7C3E1F00
7C3E1F00
7C3E1F00
7C3E1F00
7C3E1F00
7C3E1F00
FFFFFF80
ENDCHAR

STARTCHAR afii10091
ENCODING 233
SWIDTH 816 0
DWIDTH 27 0
BBX 26 20 1 -4
BITMAP
FE7F3F80
7C3E1F00
7C3E1F00
7C3E1F00
7C3E1F00
7C3E1F00
7C3E1F00
7C3E1F00
7C3E1F00
7C3E1F00
7C3E1F00
7C3E1F00
7C3E1F00
7C3E1F00
7C3E1F00
FFFFFFC0
000003C0
000000C0
00000040
00000040
ENDCHAR

STARTCHAR afii10092
ENCODING 234
SWIDTH 552 0
DWIDTH 18 0
BBX 17 16 0 0
BITMAP
FFC000
CF8000
8F8000
8F8000
0F8000
0F8000
0F8000
0FFC00
0F9F00
0F8F00
0F8F80
0F8F80
0F8F80
0F8F00
0F9F00
1FFC00
ENDCHAR

STARTCHAR afii10093
ENCODING 235
SWIDTH 734 0
DWIDTH 24 0
BBX 22 16 1 0
BITMAP
FE01FC
7C00F8
7C00F8
7C00F8
7C00F8
7C00F8
7C00F8
7FF0F8
7CF8F8
7C3CF8
7C3EF8
7C3EF8
7C3EF8
7C7CF8
7CF8F8
FFF1FC
ENDCHAR

STARTCHAR afii10094
ENCODING 236
SWIDTH 501 0
DWIDTH 17 0
BBX 15 16 1 0
BITMAP
FE00
7C00
7C00
7C00
7C00
7C00
7C00
7FF0
7CF8
7C3C
7C3E
7C3E
7C3E
7C7C
7CFC
FFF0
ENDCHAR

STARTCHAR afii10095
ENCODING 237
SWIDTH 437 0
DWIDTH 14 0
BBX 13 16 1 0
BITMAP
5F80
61C0
41E0
40F0
40F0
00F8
00F8
0FF8
00F8
00F8
00F0
00F0
81F0
43E0
3FC0
1F00
ENDCHAR

STARTCHAR afii10096
ENCODING 238
SWIDTH 771 0
DWIDTH 25 0
BBX 24 16 1 0
BITMAP
FF07E0
7C0E38
7C3C1C
7C3C1E
7C7C1E
7C7C1F
7C7C1F
7FFC1F
7C7C1F
7C7C1F
7C7C1F
7C3C1E
7C3C1E
7C1C3C
7C0E38
FF03E0
ENDCHAR

STARTCHAR afii10097
ENCODING 239
SWIDTH 499 0
DWIDTH 16 0
BBX 15 16 1 0
BITMAP
1FFE
7C7C
787C
F87C
F87C
F87C
7C7C
3E7C
1FFC
1F7C
1E7C
3E7C
3E7C
3C7C
7C7C
FCFE
ENDCHAR

STARTCHAR afii61352
ENCODING 240
SWIDTH 1052 0
DWIDTH 35 0
BBX 33 23 1 0
BITMAP
1FE0078000
03F00FC000
01F819E000
01F811E000
01FC11C000
017E100000
017E100000
013F103C00
013F106600
011F90E700
010FD1E780
010FD1E780
0107F1E780
0103F1E780
0103F1E780
0101F0E700
0101F06600
0100F03C00
6100700000
F100700000
F30031FF80
7E0011FF80
3C0011FF80
ENDCHAR

STARTCHAR afii10071
ENCODING 241
SWIDTH 437 0
DWIDTH 14 0
BBX 13 22 1 0
BITMAP
3CF0
3CF0
3CF0
1860
0000
0000
0780
1CE0
3870
7870
7078
F078
F078
FFF8
F000
F800
F800
F808
7C08
7F30
3FE0
1FC0
ENDCHAR

STARTCHAR afii10099
ENCODING 242
SWIDTH 494 0
DWIDTH 16 0
BBX 15 30 0 -7
BITMAP
FC00
7C00
7C00
FFF0
7C00
7C00
7C00
7CF0
7DF8
7E7C
7C3C
7C3C
7C3E
7C3E
7C3E
7C3E
7C3E
7C3E
7C3E
7C3E
7C3E
7C3C
FE3C
003C
0038
0078
0070
0060
00C0
0300
ENDCHAR

STARTCHAR afii10100
ENCODING 243
SWIDTH 422 0
DWIDTH 14 0
BBX 13 24 1 0
BITMAP
07C0
0780
0700
0E00
0C00
0800
0000
0000
FFF8
7C18
7C08
7C08
7C00
7C00
7C00
7C00
7C00
7C00
7C00
7C00
7C00
7C00
7C00
FE00
ENDCHAR

STARTCHAR afii10101
ENCODING 244
SWIDTH 437 0
DWIDTH 14 0
BBX 13 16 1 0
BITMAP
0FD0
3C70
7810
7810
F810
F800
F800
FF80
F800
F800
F800
7800
7C08
3E10
1FE0
0780
ENDCHAR

STARTCHAR afii10102
ENCODING 245
SWIDTH 385 0
DWIDTH 13 0
BBX 11 16 1 0
BITMAP
3E40
71C0
E0C0
E040
F040
FC00
FF00
7FC0
3FC0
0FE0
03E0
81E0
C0E0
C0E0
F1C0
8F00
ENDCHAR

STARTCHAR afii10103
ENCODING 246
SWIDTH 271 0
DWIDTH 9 0
BBX 8 23 0 0
BITMAP
1C
3E
3E
3E
1C
00
00
FE
3E
3E
3E
3E
3E
3E
3E
3E
3E
3E
3E
3E
3E
3E
FF
ENDCHAR

STARTCHAR afii10104
ENCODING 247
SWIDTH 271 0
DWIDTH 9 0
BBX 10 23 -1 0
BITMAP
F3C0
F3C0
F3C0
F3C0
0000
0000
0000
7F00
1F00
1F00
1F00
1F00
1F00
1F00
1F00
1F00
1F00
1F00
1F00
1F00
1F00
1F00
7F80
ENDCHAR

STARTCHAR afii10105
ENCODING 248
SWIDTH 271 0
DWIDTH 9 0
BBX 8 29 -1 -6
BITMAP
0E
1F
1F
1F
0E
00
00
7F
1F
1F
1F
1F
1F
1F
1F
1F
1F
1F
1F
1F
1F
1F
0F
0F
0F
07
E6
F6
7C
ENDCHAR

STARTCHAR afii10106
ENCODING 249
SWIDTH 771 0
DWIDTH 25 0
BBX 25 16 0 0
BITMAP
0FFF8000
021F0000
021F0000
021F0000
021F0000
021F0000
021F0000
021FF800
021F3E00
021F0F00
021F0F80
621F0F80
F21F0F80
F41F1F00
FC1F3F00
383FFC00
ENDCHAR

STARTCHAR afii10107
ENCODING 250
SWIDTH 776 0
DWIDTH 26 0
BBX 24 16 1 0
BITMAP
FE7F00
7C3E00
7C3E00
7C3E00
7C3E00
7C3E00
7C3E00
7FFFF8
7C3E7C
7C3E1E
7C3E1F
7C3E1F
7C3E1F
7C3E3E
7C3E7E
FE7FF8
ENDCHAR

STARTCHAR afii10108
ENCODING 251
SWIDTH 499 0
DWIDTH 16 0
BBX 15 23 1 0
BITMAP
FC00
7C00
7C00
FFF0
7C00
7C00
7C00
7CF0
7FF8
7E78
7C7C
7C7C
7C7C
7C7C
7C7C
7C7C
7C7C
7C7C
7C7C
7C7C
7C7C
7C7C
FEFE
ENDCHAR

STARTCHAR afii10109
ENCODING 252
SWIDTH 559 0
DWIDTH 18 0
BBX 17 23 1 0
BITMAP
01F000
01C000
03C000
038000
070000
000000
000000
FE0E00
7C1F00
7C2780
7C2780
7C6700
7C4000
7CC000
7F8000
7DF000
7CF000
7CF800
7C7C00
7C7C00
7C3E00
7C3E00
FE1F80
ENDCHAR

STARTCHAR section
ENCODING 253
SWIDTH 500 0
DWIDTH 17 0
BBX 14 30 1 -7
BITMAP
0FE0
3C70
3878
7078
7078
7830
7C00
3F00
0F80
1FC0
37F0
61F8
60F8
E07C
E03C
F01C
F81C
7C18
3F18
1FB0
0FE0
07E0
01F0
00F8
3078
7838
7838
7830
38F0
1FC0
ENDCHAR

STARTCHAR afii10110
ENCODING 254
SWIDTH 500 0
DWIDTH 17 0
BBX 15 30 1 -7
BITMAP
1010
3838
1C38
1C78
07E0
0000
0000
FF3E
7C0C
7C08
3E08
3E10
1F10
1F10
0F20
0FA0
0FA0
07C0
07C0
03C0
0380
0380
0180
0100
0100
6100
F200
F200
7C00
3800
ENDCHAR

STARTCHAR afii10193
ENCODING 255
SWIDTH 536 0
DWIDTH 18 0
BBX 15 20 1 -4
BITMAP
FEFE
7C7C
7C7C
7C7C
7C7C
7C7C
7C7C
7C7C
7C7C
7C7C
7C7C
7C7C
7C7C
7C7C
7C7C
FFFE
0380
0100
0100
0100
ENDCHAR
ENDFONT
